<svg width="18" height="18" viewBox="0 0 18 18" fill="none" xmlns="http://www.w3.org/2000/svg">
<path d="M6.96439 0.288935L7.98871 0.692457C8.3541 0.836311 8.76043 0.836311 9.12582 0.692457L10.1501 0.288935C10.7532 0.0517709 11.4247 0.0578198 12.0233 0.305808C12.622 0.553796 13.101 1.02438 13.3597 1.61849L13.7984 2.6273C13.955 2.98732 14.2423 3.2746 14.6023 3.43124L15.6112 3.86994C16.2055 4.1286 16.6763 4.60785 16.9243 5.20674C17.1723 5.80563 17.1782 6.47739 16.9407 7.08053L16.5372 8.10486C16.3936 8.46994 16.3936 8.87585 16.5372 9.24093L16.9407 10.2653C17.1779 10.8683 17.1718 11.5398 16.9238 12.1384C16.6758 12.7371 16.2053 13.2162 15.6112 13.4748L14.6023 13.9135C14.2423 14.0701 13.955 14.3574 13.7984 14.7175L13.3597 15.7263C13.101 16.3206 12.6218 16.7914 12.0229 17.0394C11.424 17.2874 10.7523 17.2933 10.1491 17.0558L9.12478 16.6523C8.7597 16.5087 8.35379 16.5087 7.98871 16.6523L6.96439 17.0558C6.36137 17.293 5.68986 17.2869 5.09121 17.0389C4.49257 16.791 4.01349 16.3204 3.75483 15.7263L3.31613 14.7175C3.15948 14.3574 2.87221 14.0702 2.51219 13.9135L1.50338 13.4748C0.909016 13.2162 0.438247 12.7369 0.190239 12.138C-0.0577689 11.5391 -0.0636544 10.8674 0.173823 10.2642L0.577345 9.2399C0.720927 8.87482 0.720927 8.46891 0.577345 8.10383L0.173823 7.0795C-0.0633414 6.47648 -0.0572925 5.80497 0.190696 5.20633C0.438684 4.60768 0.909266 4.1286 1.50338 3.86994L2.51219 3.43124C2.87221 3.2746 3.15948 2.98732 3.31613 2.6273L3.75483 1.61849C4.01349 1.02413 4.49274 0.553359 5.09163 0.305351C5.69051 0.0573434 6.36228 0.0514579 6.96542 0.288935H6.96439ZM10.5288 1.25118L9.50451 1.6547C8.89574 1.89428 8.2188 1.89428 7.61002 1.6547L6.5857 1.25118C6.23203 1.11217 5.83821 1.1158 5.48717 1.26131C5.13612 1.40682 4.85523 1.68287 4.70362 2.03133L4.26492 3.04013C4.00385 3.64017 3.52506 4.11896 2.92502 4.38003L1.91621 4.81874C1.56769 4.97053 1.29169 5.25168 1.14636 5.60295C1.00103 5.95421 0.997711 6.34818 1.1371 6.70184L1.53959 7.72513C1.77917 8.33391 1.77917 9.01085 1.53959 9.61962L1.13607 10.6439C0.847395 11.3786 1.19194 12.2104 1.91621 12.526L2.92502 12.9647C3.52506 13.2258 4.00385 13.7046 4.26492 14.3046L4.70362 15.3134C4.85542 15.662 5.13657 15.938 5.48783 16.0833C5.8391 16.2286 6.23306 16.2319 6.58673 16.0925L7.61002 15.689C8.2188 15.4494 8.89574 15.4494 9.50451 15.689L10.5288 16.0925C11.2635 16.3822 12.0953 16.0377 12.4109 15.3134L12.8496 14.3046C13.1107 13.7046 13.5895 13.2258 14.1895 12.9647L15.1983 12.526C15.5468 12.3742 15.8228 12.0931 15.9682 11.7418C16.1135 11.3905 16.1168 10.9966 15.9774 10.6429L15.5739 9.61962C15.3343 9.01085 15.3343 8.33391 15.5739 7.72513L15.9774 6.70081C16.1165 6.34727 16.113 5.95356 15.9677 5.60253C15.8224 5.25151 15.5466 4.97053 15.1983 4.81874L14.1895 4.38003C13.5895 4.11896 13.1107 3.64017 12.8496 3.04013L12.4109 2.03133C12.2591 1.6828 11.978 1.40681 11.6267 1.26147C11.2754 1.11614 10.8815 1.11282 10.5278 1.25222L10.5288 1.25118ZM7.50035 10.5053L11.2748 6.259C11.361 6.1637 11.4795 6.10384 11.6073 6.09109C11.7351 6.07834 11.8631 6.1136 11.9664 6.19002C12.0697 6.26643 12.1408 6.37853 12.166 6.5045C12.1911 6.63047 12.1685 6.7613 12.1026 6.87153L12.0477 6.94706L7.90904 11.6031C7.82553 11.697 7.71069 11.7573 7.58598 11.7727C7.46127 11.7881 7.3352 11.7576 7.23133 11.6869L7.15684 11.6248L5.08749 9.55547C4.99583 9.46422 4.94168 9.34196 4.9357 9.21276C4.92972 9.08357 4.97235 8.95682 5.05518 8.8575C5.13801 8.75818 5.25505 8.69348 5.38321 8.67616C5.51138 8.65885 5.64139 8.69017 5.74761 8.76395L5.819 8.82396L7.50035 10.5053Z" fill="white"/>
</svg>
